<?xml version="1.0" encoding="UTF-8"?>
<!DOCTYPE svg PUBLIC "-//W3C//DTD SVG 1.1//EN" "http://www.w3.org/Graphics/SVG/1.1/DTD/svg11.dtd">
<svg xmlns="http://www.w3.org/2000/svg" version="1.1" width="269px" height="264px" style="shape-rendering:geometricPrecision; text-rendering:geometricPrecision; image-rendering:optimizeQuality; fill-rule:evenodd; clip-rule:evenodd" xmlns:xlink="http://www.w3.org/1999/xlink">
<g><path style="opacity:0.938" fill="#040404" d="M 126.5,11.5 C 180.233,7.28784 222.066,27.2878 252,71.5C 254.505,74.8194 255.505,78.486 255,82.5C 236.911,91.7945 218.744,100.961 200.5,110C 204.243,111.136 207.91,112.47 211.5,114C 223.836,114.1 236.169,114.1 248.5,114C 249.423,116.041 249.756,118.208 249.5,120.5C 252.777,120.216 255.943,120.549 259,121.5C 259.667,151.167 259.667,180.833 259,210.5C 218.983,251.83 170.816,265.663 114.5,252C 87.1513,243.634 63.6513,229.134 44,208.5C 15.3986,171.222 8.73191,130.222 24,85.5C 39.3729,49.1314 66.2062,25.9648 104.5,16C 111.931,14.281 119.265,12.781 126.5,11.5 Z M 147.5,85.5 C 146.763,87.3046 145.763,88.9713 144.5,90.5C 133.114,96.1932 121.78,101.86 110.5,107.5C 119.232,94.2938 131.565,86.9605 147.5,85.5 Z M 172.5,91.5 C 184.147,101.546 183.147,103.38 169.5,97C 170.758,95.2591 171.758,93.4258 172.5,91.5 Z"/></g>
<g><path style="opacity:1" fill="#e8ac07" d="M 167.5,16.5 C 167.918,17.2216 168.584,17.7216 169.5,18C 137.99,23.4461 106.49,28.9461 75,34.5C 73.9302,34.472 73.0968,34.1386 72.5,33.5C 101.973,16.3086 133.64,10.6419 167.5,16.5 Z"/></g>
<g><path style="opacity:1" fill="#cfa612" d="M 167.5,16.5 C 173.49,18.1589 179.49,19.8256 185.5,21.5C 185.082,22.2216 184.416,22.7216 183.5,23C 141.682,30.5258 100.016,37.3592 58.5,43.5C 62.7767,39.6882 67.4434,36.3548 72.5,33.5C 73.0968,34.1386 73.9302,34.472 75,34.5C 106.49,28.9461 137.99,23.4461 169.5,18C 168.584,17.7216 167.918,17.2216 167.5,16.5 Z"/></g>
<g><path style="opacity:1" fill="#bca01a" d="M 185.5,21.5 C 187.915,22.3052 190.249,23.3052 192.5,24.5C 191.411,26.1171 189.744,26.9504 187.5,27C 142.128,34.7286 96.7942,42.5619 51.5,50.5C 53.5,47.8333 55.8333,45.5 58.5,43.5C 100.016,37.3592 141.682,30.5258 183.5,23C 184.416,22.7216 185.082,22.2216 185.5,21.5 Z"/></g>
<g><path style="opacity:1" fill="#ad9c1f" d="M 192.5,24.5 C 194.5,25.5 196.5,26.5 198.5,27.5C 148.455,37.0617 98.4554,45.7284 48.5,53.5C 49.1667,52.1667 50.1667,51.1667 51.5,50.5C 96.7942,42.5619 142.128,34.7286 187.5,27C 189.744,26.9504 191.411,26.1171 192.5,24.5 Z"/></g>
<g><path style="opacity:1" fill="#a19824" d="M 198.5,27.5 C 199.167,27.8333 199.833,28.1667 200.5,28.5C 199.391,29.29 198.058,29.79 196.5,30C 197.5,30.3333 198.5,30.6667 199.5,31C 151.147,39.2254 102.814,47.5588 54.5,56C 51.633,56.8007 48.9664,56.6341 46.5,55.5C 46.8333,54.5 47.5,53.8333 48.5,53.5C 98.4554,45.7284 148.455,37.0617 198.5,27.5 Z"/></g>
<g><path style="opacity:1" fill="#949429" d="M 200.5,28.5 C 202.332,29.2485 203.999,30.2485 205.5,31.5C 204.411,33.1171 202.744,33.9504 200.5,34C 147.555,43.2128 94.8879,52.0461 42.5,60.5C 43.0798,58.2512 44.4131,56.5846 46.5,55.5C 48.9664,56.6341 51.633,56.8007 54.5,56C 102.814,47.5588 151.147,39.2254 199.5,31C 198.5,30.6667 197.5,30.3333 196.5,30C 198.058,29.79 199.391,29.29 200.5,28.5 Z"/></g>
<g><path style="opacity:1" fill="#87902e" d="M 205.5,31.5 C 206.5,32.1667 207.5,32.8333 208.5,33.5C 208.209,34.6491 207.376,35.3158 206,35.5C 194.49,37.446 182.99,39.446 171.5,41.5C 169.01,43.714 166.01,44.8807 162.5,45C 123.833,51.6667 85.1667,58.3333 46.5,65C 43.9615,65.7958 41.6282,65.6291 39.5,64.5C 40.0256,62.7697 41.0256,61.4363 42.5,60.5C 94.8879,52.0461 147.555,43.2128 200.5,34C 202.744,33.9504 204.411,33.1171 205.5,31.5 Z"/></g>
<g><path style="opacity:1" fill="#758a35" d="M 208.5,33.5 C 211.681,35.5917 214.681,37.925 217.5,40.5C 206.418,43.4627 195.085,45.796 183.5,47.5C 181.328,44.8523 178.495,43.1856 175,42.5C 172.993,43.3441 171.493,44.6774 170.5,46.5C 127.029,55.26 83.3623,63.26 39.5,70.5C 37.9704,70.3601 36.9704,69.6935 36.5,68.5C 37.0256,66.7697 38.0256,65.4363 39.5,64.5C 41.6282,65.6291 43.9615,65.7958 46.5,65C 85.1667,58.3333 123.833,51.6667 162.5,45C 166.01,44.8807 169.01,43.714 171.5,41.5C 182.99,39.446 194.49,37.446 206,35.5C 207.376,35.3158 208.209,34.6491 208.5,33.5 Z"/></g>
<g><path style="opacity:1" fill="#64843c" d="M 170.5,46.5 C 169.649,48.8816 168.316,50.8816 166.5,52.5C 122.118,59.5082 77.7843,66.8415 33.5,74.5C 33.9925,72.1815 34.9925,70.1815 36.5,68.5C 36.9704,69.6935 37.9704,70.3601 39.5,70.5C 83.3623,63.26 127.029,55.26 170.5,46.5 Z"/></g>
<g><path style="opacity:1" fill="#507c46" d="M 217.5,40.5 C 220.5,42.8333 223.167,45.5 225.5,48.5C 225.03,49.6935 224.03,50.3601 222.5,50.5C 207.862,53.0949 193.195,55.4282 178.5,57.5C 179.642,53.8832 181.308,50.5498 183.5,47.5C 195.085,45.796 206.418,43.4627 217.5,40.5 Z"/></g>
<g><path style="opacity:1" fill="#2f6f57" d="M 225.5,48.5 C 227.878,50.8785 229.878,53.5451 231.5,56.5C 213.164,59.9744 194.664,63.3077 176,66.5C 174.93,66.472 174.097,66.1386 173.5,65.5C 174.383,62.2957 176.05,59.6291 178.5,57.5C 193.195,55.4282 207.862,53.0949 222.5,50.5C 224.03,50.3601 225.03,49.6935 225.5,48.5 Z"/></g>
<g><path style="opacity:1" fill="#1e6661" d="M 231.5,56.5 C 233.543,57.5794 234.876,59.246 235.5,61.5C 213.347,65.8048 191.014,69.8048 168.5,73.5C 169.68,70.4604 171.347,67.7937 173.5,65.5C 174.097,66.1386 174.93,66.472 176,66.5C 194.664,63.3077 213.164,59.9744 231.5,56.5 Z"/></g>
<g><path style="opacity:1" fill="#507d46" d="M 166.5,52.5 C 165.416,55.0041 164.083,57.3374 162.5,59.5C 119.27,66.379 76.103,73.7123 33,81.5C 31.9302,81.472 31.0968,81.1386 30.5,80.5C 30.461,77.911 31.461,75.911 33.5,74.5C 77.7843,66.8415 122.118,59.5082 166.5,52.5 Z"/></g>
<g><path style="opacity:1" fill="#3d754f" d="M 162.5,59.5 C 162.34,61.153 161.674,62.4863 160.5,63.5C 116.91,70.2372 73.41,77.5706 30,85.5C 29.2352,85.4301 28.7352,85.0967 28.5,84.5C 28.6596,82.847 29.3263,81.5137 30.5,80.5C 31.0968,81.1386 31.9302,81.472 33,81.5C 76.103,73.7123 119.27,66.379 162.5,59.5 Z"/></g>
<g><path style="opacity:1" fill="#201b0e" d="M 183.5,47.5 C 181.308,50.5498 179.642,53.8832 178.5,57.5C 176.05,59.6291 174.383,62.2957 173.5,65.5C 171.347,67.7937 169.68,70.4604 168.5,73.5C 167.263,74.9649 166.263,76.6316 165.5,78.5C 165.167,79.1667 164.833,79.8333 164.5,80.5C 164.368,83.0069 163.368,83.6736 161.5,82.5C 164.821,76.5272 168.155,70.5272 171.5,64.5C 171,64.1667 170.5,63.8333 170,63.5C 156.147,86.0251 142.647,108.858 129.5,132C 130.094,132.464 130.761,132.631 131.5,132.5C 129.709,133.391 127.876,134.391 126,135.5C 126,137.5 126,139.5 126,141.5C 125.243,139.685 124.41,138.019 123.5,136.5C 138.877,111.745 153.21,86.4116 166.5,60.5C 165.5,60.5 164.5,60.5 163.5,60.5C 160.673,67.6524 157.006,74.319 152.5,80.5C 151.266,78.6017 151.599,76.935 153.5,75.5C 155.653,73.2063 157.32,70.5396 158.5,67.5C 159.6,66.3951 160.267,65.0618 160.5,63.5C 161.674,62.4863 162.34,61.153 162.5,59.5C 164.083,57.3374 165.416,55.0041 166.5,52.5C 168.316,50.8816 169.649,48.8816 170.5,46.5C 171.493,44.6774 172.993,43.3441 175,42.5C 178.495,43.1856 181.328,44.8523 183.5,47.5 Z"/></g>
<g><path style="opacity:1" fill="#d4d4d4" d="M 166.5,60.5 C 166.581,56.7051 168.247,53.3718 171.5,50.5C 173.5,51.8333 175.5,53.1667 177.5,54.5C 175.903,57.3705 174.07,60.0372 172,62.5C 170.2,61.6805 168.366,61.0138 166.5,60.5 Z"/></g>
<g><path style="opacity:1" fill="#ececec" d="M 173.5,44.5 C 176.346,44.0301 178.679,44.8634 180.5,47C 178.009,47.6259 178.009,48.4593 180.5,49.5C 180.081,50.6721 179.415,51.6721 178.5,52.5C 175.724,51.9109 173.39,50.5776 171.5,48.5C 172.18,47.1401 172.847,45.8068 173.5,44.5 Z"/></g>
<g><path style="opacity:1" fill="#ebad1c" d="M 161.5,82.5 C 158.773,86.5765 156.439,90.9098 154.5,95.5C 152.75,96.6594 151.75,98.326 151.5,100.5C 149.076,103.008 147.41,106.008 146.5,109.5C 141.597,116.964 136.93,124.631 132.5,132.5C 132.167,132.5 131.833,132.5 131.5,132.5C 130.761,132.631 130.094,132.464 129.5,132C 142.647,108.858 156.147,86.0251 170,63.5C 170.5,63.8333 171,64.1667 171.5,64.5C 168.155,70.5272 164.821,76.5272 161.5,82.5 Z"/></g>
<g><path style="opacity:1" fill="#135f6a" d="M 235.5,61.5 C 236.737,62.9649 237.737,64.6316 238.5,66.5C 214.149,70.3918 189.816,74.3918 165.5,78.5C 166.263,76.6316 167.263,74.9649 168.5,73.5C 191.014,69.8048 213.347,65.8048 235.5,61.5 Z"/></g>
<g><path style="opacity:1" fill="#0d5971" d="M 238.5,66.5 C 239.737,67.9649 240.737,69.6316 241.5,71.5C 217.969,75.4196 194.636,79.7529 171.5,84.5C 169.302,82.9019 166.969,81.5686 164.5,80.5C 164.833,79.8333 165.167,79.1667 165.5,78.5C 189.816,74.3918 214.149,70.3918 238.5,66.5 Z"/></g>
<g><path style="opacity:1" fill="#307055" d="M 160.5,63.5 C 160.267,65.0618 159.6,66.3951 158.5,67.5C 114.56,75.2214 70.5602,82.5548 26.5,89.5C 26.4021,87.4471 27.0687,85.7804 28.5,84.5C 28.7352,85.0967 29.2352,85.4301 30,85.5C 73.41,77.5706 116.91,70.2372 160.5,63.5 Z"/></g>
<g><path style="opacity:1" fill="#0c5378" d="M 241.5,71.5 C 241.611,72.1174 241.944,72.6174 242.5,73C 238.807,74.8466 235.14,76.6799 231.5,78.5C 231.265,77.9033 230.765,77.5699 230,77.5C 211.603,81.2051 193.103,84.2051 174.5,86.5C 172.973,86.573 171.973,85.9063 171.5,84.5C 194.636,79.7529 217.969,75.4196 241.5,71.5 Z"/></g>
<g><path style="opacity:0.982" fill="#010102" d="M 153.5,75.5 C 151.599,76.935 151.266,78.6017 152.5,80.5C 152.34,82.153 151.674,83.4863 150.5,84.5C 149.105,83.1854 148.105,83.5188 147.5,85.5C 131.565,86.9605 119.232,94.2938 110.5,107.5C 107.873,109.313 105.373,111.979 103,115.5C 102.831,120.161 102.997,124.828 103.5,129.5C 103.269,134.222 102.602,138.889 101.5,143.5C 101.685,144.584 102.018,145.584 102.5,146.5C 101.069,146.119 100.236,145.119 100,143.5C 98.948,149.144 98.1147,154.811 97.5,160.5C 96.5,159.167 95.5,157.833 94.5,156.5C 93.7362,153.982 92.7362,151.649 91.5,149.5C 91.634,147.708 91.3007,146.042 90.5,144.5C 90.3259,142.139 89.9926,139.806 89.5,137.5C 89.5,130.833 89.5,124.167 89.5,117.5C 90.1098,116.609 90.4431,115.609 90.5,114.5C 91.038,112.883 91.3713,111.216 91.5,109.5C 92.3382,109.158 92.6716,108.492 92.5,107.5C 93.6737,106.486 94.3404,105.153 94.5,103.5C 96.0075,101.819 97.0075,99.8185 97.5,97.5C 99.6326,95.9095 101.299,93.9095 102.5,91.5C 104.167,90.5 105.5,89.1667 106.5,87.5C 111.189,84.4661 115.856,81.4661 120.5,78.5C 131.191,74.5213 142.191,73.5213 153.5,75.5 Z"/></g>
<g><path style="opacity:1" fill="#246a5c" d="M 158.5,67.5 C 157.32,70.5396 155.653,73.2063 153.5,75.5C 142.191,73.5213 131.191,74.5213 120.5,78.5C 89.6509,83.6694 58.8176,89.0027 28,94.5C 26.6244,94.3158 25.7911,93.6491 25.5,92.5C 25.2627,91.209 25.596,90.209 26.5,89.5C 70.5602,82.5548 114.56,75.2214 158.5,67.5 Z"/></g>
<g><path style="opacity:1" fill="#0f4d7e" d="M 231.5,78.5 C 227.291,80.7712 222.958,82.7712 218.5,84.5C 204.954,86.3456 191.621,88.6789 178.5,91.5C 176.937,90.0552 175.604,88.3885 174.5,86.5C 193.103,84.2051 211.603,81.2051 230,77.5C 230.765,77.5699 231.265,77.9033 231.5,78.5 Z"/></g>
<g><path style="opacity:1" fill="#176266" d="M 120.5,78.5 C 115.856,81.4661 111.189,84.4661 106.5,87.5C 79.0542,91.5226 51.7209,96.1892 24.5,101.5C 23.7025,101.043 23.3691,100.376 23.5,99.5C 23.4095,96.8478 24.0762,94.5145 25.5,92.5C 25.7911,93.6491 26.6244,94.3158 28,94.5C 58.8176,89.0027 89.6509,83.6694 120.5,78.5 Z"/></g>
<g><path style="opacity:1" fill="#eead19" d="M 166.5,60.5 C 153.21,86.4116 138.877,111.745 123.5,136.5C 122.957,136.44 122.624,136.107 122.5,135.5C 128.368,125.764 133.701,115.764 138.5,105.5C 140.588,103.664 141.921,101.331 142.5,98.5C 145.655,94.1991 148.322,89.5325 150.5,84.5C 151.674,83.4863 152.34,82.153 152.5,80.5C 157.006,74.319 160.673,67.6524 163.5,60.5C 164.5,60.5 165.5,60.5 166.5,60.5 Z"/></g>
<g><path style="opacity:1" fill="#1a4486" d="M 218.5,84.5 C 207.718,90.3923 196.718,96.059 185.5,101.5C 183.169,98.175 180.836,94.8417 178.5,91.5C 191.621,88.6789 204.954,86.3456 218.5,84.5 Z"/></g>
<g><path style="opacity:1" fill="#105c6d" d="M 106.5,87.5 C 105.5,89.1667 104.167,90.5 102.5,91.5C 76.1458,96.059 49.8124,100.726 23.5,105.5C 22.7025,105.043 22.3691,104.376 22.5,103.5C 22.2322,101.901 22.5655,100.568 23.5,99.5C 23.3691,100.376 23.7025,101.043 24.5,101.5C 51.7209,96.1892 79.0542,91.5226 106.5,87.5 Z"/></g>
<g><path style="opacity:1" fill="#0d5872" d="M 102.5,91.5 C 101.299,93.9095 99.6326,95.9095 97.5,97.5C 97.2648,96.9033 96.7648,96.5699 96,96.5C 71.1876,100.996 46.3543,105.33 21.5,109.5C 21.7373,110.791 21.404,111.791 20.5,112.5C 20.6761,109.273 21.3428,106.273 22.5,103.5C 22.3691,104.376 22.7025,105.043 23.5,105.5C 49.8124,100.726 76.1458,96.059 102.5,91.5 Z"/></g>
<g><path style="opacity:0.999" fill="#1f1e1c" d="M 150.5,84.5 C 148.322,89.5325 145.655,94.1991 142.5,98.5C 143.028,97.1526 143.195,95.8193 143,94.5C 131.58,100.794 120.08,106.961 108.5,113C 107.299,113.903 106.465,115.069 106,116.5C 105.24,120.988 104.406,125.322 103.5,129.5C 102.997,124.828 102.831,120.161 103,115.5C 105.373,111.979 107.873,109.313 110.5,107.5C 121.78,101.86 133.114,96.1932 144.5,90.5C 145.763,88.9713 146.763,87.3046 147.5,85.5C 148.105,83.5188 149.105,83.1854 150.5,84.5 Z"/></g>
<g><path style="opacity:1" fill="#fafafa" d="M 154.5,95.5 C 172.565,102.361 190.565,109.528 208.5,117C 221.162,117.5 233.829,117.667 246.5,117.5C 246.5,126.5 246.5,135.5 246.5,144.5C 240.5,144.5 234.5,144.5 228.5,144.5C 223.32,143.185 217.986,143.185 212.5,144.5C 217.792,145.495 223.125,145.828 228.5,145.5C 234.5,145.833 240.5,146.167 246.5,146.5C 246.5,153.5 246.5,160.5 246.5,167.5C 234.843,166.639 223.176,166.473 211.5,167C 200.972,173.386 189.639,175.219 177.5,172.5C 176.791,171.596 175.791,171.263 174.5,171.5C 174.756,169.208 174.423,167.041 173.5,165C 180.483,163.67 187.483,162.503 194.5,161.5C 197.757,160.538 200.757,159.038 203.5,157C 200.072,157.88 196.738,159.047 193.5,160.5C 186.87,161.546 180.203,161.713 173.5,161C 169.462,160.101 165.795,158.434 162.5,156C 165.513,155.498 168.513,154.998 171.5,154.5C 174.593,153.786 177.26,152.286 179.5,150C 176.175,151.053 172.842,152.22 169.5,153.5C 165.774,153.823 162.107,153.489 158.5,152.5C 165.439,150.614 171.605,147.28 177,142.5C 177.667,141.833 177.667,141.167 177,140.5C 173.764,143.871 169.931,146.371 165.5,148C 158.551,149.122 151.551,149.789 144.5,150C 140.553,152.28 136.887,154.947 133.5,158C 128.98,160.007 124.313,161.507 119.5,162.5C 123.239,160.748 124.239,158.081 122.5,154.5C 122.771,152.62 122.104,151.287 120.5,150.5C 120.516,148.516 119.516,147.516 117.5,147.5C 115.484,148.178 113.484,148.844 111.5,149.5C 114.821,144.514 118.821,140.18 123.5,136.5C 124.41,138.019 125.243,139.685 126,141.5C 126,139.5 126,137.5 126,135.5C 127.876,134.391 129.709,133.391 131.5,132.5C 131.833,132.5 132.167,132.5 132.5,132.5C 139.68,130.576 146.013,127.076 151.5,122C 149.65,122.595 147.65,123.095 145.5,123.5C 145.998,118.848 146.331,114.181 146.5,109.5C 148.924,106.992 150.59,103.992 151.5,100.5C 153.25,99.3406 154.25,97.674 154.5,95.5 Z"/></g>
<g><path style="opacity:1" fill="#0c5378" d="M 97.5,97.5 C 97.0075,99.8185 96.0075,101.819 94.5,103.5C 94.2089,102.351 93.3756,101.684 92,101.5C 68.2007,105.772 44.3673,109.772 20.5,113.5C 20.5,113.167 20.5,112.833 20.5,112.5C 21.404,111.791 21.7373,110.791 21.5,109.5C 46.3543,105.33 71.1876,100.996 96,96.5C 96.7648,96.5699 97.2648,96.9033 97.5,97.5 Z"/></g>
<g><path style="opacity:1" fill="#f5f5f5" d="M 142.5,98.5 C 140.412,100.336 139.079,102.669 138.5,105.5C 136.442,107.927 134.609,110.593 133,113.5C 132.64,111.392 131.973,109.392 131,107.5C 131.693,114.942 129.193,120.942 123.5,125.5C 121.397,121.894 118.731,118.727 115.5,116C 114.833,115.333 114.167,115.333 113.5,116C 118.211,119.091 120.878,123.424 121.5,129C 121.251,131.664 120.085,133.831 118,135.5C 115.611,133.05 112.778,131.883 109.5,132C 113.191,133.024 115.524,135.357 116.5,139C 114.044,142.744 111.71,146.577 109.5,150.5C 107.932,152.811 107.098,155.478 107,158.5C 104.955,160.043 103.455,159.71 102.5,157.5C 105.065,153.801 105.065,150.135 102.5,146.5C 102.018,145.584 101.685,144.584 101.5,143.5C 102.602,138.889 103.269,134.222 103.5,129.5C 104.406,125.322 105.24,120.988 106,116.5C 106.465,115.069 107.299,113.903 108.5,113C 120.08,106.961 131.58,100.794 143,94.5C 143.195,95.8193 143.028,97.1526 142.5,98.5 Z"/></g>
<g><path style="opacity:1" fill="#362d1c" d="M 154.5,95.5 C 154.25,97.674 153.25,99.3406 151.5,100.5C 151.75,98.326 152.75,96.6594 154.5,95.5 Z"/></g>
<g><path style="opacity:1" fill="#4a3b1b" d="M 142.5,98.5 C 141.921,101.331 140.588,103.664 138.5,105.5C 139.079,102.669 140.412,100.336 142.5,98.5 Z"/></g>
<g><path style="opacity:1" fill="#0f4d7e" d="M 94.5,103.5 C 94.3404,105.153 93.6737,106.486 92.5,107.5C 90.3718,106.371 88.0385,106.204 85.5,107C 64.1173,110.644 42.7839,114.477 21.5,118.5C 20.6143,119.325 20.281,120.325 20.5,121.5C 20.6716,122.492 20.3382,123.158 19.5,123.5C 19.3424,120.098 19.6758,116.764 20.5,113.5C 44.3673,109.772 68.2007,105.772 92,101.5C 93.3756,101.684 94.2089,102.351 94.5,103.5 Z"/></g>
<g><path style="opacity:1" fill="#403623" d="M 151.5,100.5 C 150.59,103.992 148.924,106.992 146.5,109.5C 147.41,106.008 149.076,103.008 151.5,100.5 Z"/></g>
<g><path style="opacity:1" fill="#154885" d="M 92.5,107.5 C 92.6716,108.492 92.3382,109.158 91.5,109.5C 67.7698,113.177 44.1031,117.177 20.5,121.5C 20.281,120.325 20.6143,119.325 21.5,118.5C 42.7839,114.477 64.1173,110.644 85.5,107C 88.0385,106.204 90.3718,106.371 92.5,107.5 Z"/></g>
<g><path style="opacity:1" fill="#120f0b" d="M 146.5,109.5 C 146.331,114.181 145.998,118.848 145.5,123.5C 147.65,123.095 149.65,122.595 151.5,122C 146.013,127.076 139.68,130.576 132.5,132.5C 136.93,124.631 141.597,116.964 146.5,109.5 Z"/></g>
<g><path style="opacity:1" fill="#20418d" d="M 91.5,109.5 C 91.3713,111.216 91.038,112.883 90.5,114.5C 66.5425,117.88 42.8758,122.213 19.5,127.5C 19.5,126.167 19.5,124.833 19.5,123.5C 20.3382,123.158 20.6716,122.492 20.5,121.5C 44.1031,117.177 67.7698,113.177 91.5,109.5 Z"/></g>
<g><path style="opacity:1" fill="#363292" d="M 89.5,117.5 C 89.5,124.167 89.5,130.833 89.5,137.5C 88.6618,137.158 88.3284,136.492 88.5,135.5C 88.5,134.167 88.5,132.833 88.5,131.5C 88.5,129.833 88.5,128.167 88.5,126.5C 88.5,124.833 88.5,123.167 88.5,121.5C 66.1442,125.138 43.8109,128.971 21.5,133C 20.6198,134.356 20.2865,135.856 20.5,137.5C 20.5,139.5 20.5,141.5 20.5,143.5C 20.5,143.833 20.5,144.167 20.5,144.5C 19.5128,139.695 19.1795,134.695 19.5,129.5C 42.975,126.137 66.3083,122.137 89.5,117.5 Z"/></g>
<g><path style="opacity:1" fill="#2c3a94" d="M 90.5,114.5 C 90.4431,115.609 90.1098,116.609 89.5,117.5C 66.3083,122.137 42.975,126.137 19.5,129.5C 19.5,128.833 19.5,128.167 19.5,127.5C 42.8758,122.213 66.5425,117.88 90.5,114.5 Z"/></g>
<g><path style="opacity:1" fill="#211f1d" d="M 138.5,105.5 C 133.701,115.764 128.368,125.764 122.5,135.5C 122.624,136.107 122.957,136.44 123.5,136.5C 118.821,140.18 114.821,144.514 111.5,149.5C 110.833,149.833 110.167,150.167 109.5,150.5C 111.71,146.577 114.044,142.744 116.5,139C 115.524,135.357 113.191,133.024 109.5,132C 112.778,131.883 115.611,133.05 118,135.5C 120.085,133.831 121.251,131.664 121.5,129C 120.878,123.424 118.211,119.091 113.5,116C 114.167,115.333 114.833,115.333 115.5,116C 118.731,118.727 121.397,121.894 123.5,125.5C 129.193,120.942 131.693,114.942 131,107.5C 131.973,109.392 132.64,111.392 133,113.5C 134.609,110.593 136.442,107.927 138.5,105.5 Z"/></g>
<g><path style="opacity:1" fill="#5c25a8" d="M 88.5,126.5 C 88.5,128.167 88.5,129.833 88.5,131.5C 65.8333,135.5 43.1667,139.5 20.5,143.5C 20.5,141.5 20.5,139.5 20.5,137.5C 43.1667,133.833 65.8333,130.167 88.5,126.5 Z"/></g>
<g><path style="opacity:1" fill="#4a2da1" d="M 88.5,126.5 C 65.8333,130.167 43.1667,133.833 20.5,137.5C 20.2865,135.856 20.6198,134.356 21.5,133C 43.8109,128.971 66.1442,125.138 88.5,121.5C 88.5,123.167 88.5,124.833 88.5,126.5 Z"/></g>
<g><path style="opacity:1" fill="#741cb1" d="M 88.5,131.5 C 88.5,132.833 88.5,134.167 88.5,135.5C 66.1877,139.296 43.8543,142.962 21.5,146.5C 21.5,147.5 21.5,148.5 21.5,149.5C 20.5489,148.081 20.2155,146.415 20.5,144.5C 20.5,144.167 20.5,143.833 20.5,143.5C 43.1667,139.5 65.8333,135.5 88.5,131.5 Z"/></g>
<g><path style="opacity:1" fill="#585858" d="M 228.5,144.5 C 228.5,144.833 228.5,145.167 228.5,145.5C 223.125,145.828 217.792,145.495 212.5,144.5C 217.986,143.185 223.32,143.185 228.5,144.5 Z"/></g>
<g><path style="opacity:1" fill="#8d14b9" d="M 88.5,135.5 C 88.3284,136.492 88.6618,137.158 89.5,137.5C 89.9926,139.806 90.3259,142.139 90.5,144.5C 89.4477,143.47 88.1143,142.803 86.5,142.5C 65.1536,146.169 43.8202,149.835 22.5,153.5C 22.5,154.5 22.5,155.5 22.5,156.5C 21.5318,154.393 21.1984,152.059 21.5,149.5C 21.5,148.5 21.5,147.5 21.5,146.5C 43.8543,142.962 66.1877,139.296 88.5,135.5 Z"/></g>
<g><path style="opacity:1" fill="#191818" d="M 169.5,153.5 C 170.492,153.328 171.158,153.662 171.5,154.5C 168.513,154.998 165.513,155.498 162.5,156C 165.795,158.434 169.462,160.101 173.5,161C 180.203,161.713 186.87,161.546 193.5,160.5C 194.167,160.5 194.5,160.833 194.5,161.5C 187.483,162.503 180.483,163.67 173.5,165C 174.423,167.041 174.756,169.208 174.5,171.5C 175.791,171.263 176.791,171.596 177.5,172.5C 176.761,172.369 176.094,172.536 175.5,173C 176.737,173.232 177.737,173.732 178.5,174.5C 176.533,174.739 174.699,174.406 173,173.5C 171.846,174.743 170.512,175.743 169,176.5C 163.554,176.169 158.054,175.502 152.5,174.5C 154.5,174.5 156.5,174.5 158.5,174.5C 162.371,174.815 166.038,174.482 169.5,173.5C 173.467,170.124 173.467,166.624 169.5,163C 163.656,161.177 157.656,160.01 151.5,159.5C 149.287,156.789 146.454,155.122 143,154.5C 140.525,154.984 138.692,156.317 137.5,158.5C 146.874,160.171 150.541,165.504 148.5,174.5C 147.833,174.5 147.167,174.5 146.5,174.5C 149.681,169.004 148.348,164.837 142.5,162C 131.63,158.029 126.63,161.863 127.5,173.5C 128.689,174.429 130.022,174.762 131.5,174.5C 131.5,174.833 131.5,175.167 131.5,175.5C 131.494,176.417 132.494,176.917 134.5,177C 132.287,177.626 130.12,177.459 128,176.5C 126.699,176.639 125.866,177.305 125.5,178.5C 124.833,178.5 124.5,178.833 124.5,179.5C 119.959,177.798 116.459,174.798 114,170.5C 112.824,172.196 111.657,173.862 110.5,175.5C 106.702,178.796 103.036,182.296 99.5,186C 98.6683,186.688 98.0016,186.521 97.5,185.5C 98.1272,184.583 98.4606,183.583 98.5,182.5C 99.1024,177.922 100.102,173.422 101.5,169C 101.1,166.785 100.1,164.952 98.5,163.5C 97.8902,162.609 97.5569,161.609 97.5,160.5C 98.1147,154.811 98.948,149.144 100,143.5C 100.236,145.119 101.069,146.119 102.5,146.5C 105.065,150.135 105.065,153.801 102.5,157.5C 103.455,159.71 104.955,160.043 107,158.5C 107.098,155.478 107.932,152.811 109.5,150.5C 109.5,151.5 109.5,152.5 109.5,153.5C 108.384,156.337 108.884,159.004 111,161.5C 112.011,162.337 113.178,162.67 114.5,162.5C 116.167,163.833 117.833,163.833 119.5,162.5C 124.313,161.507 128.98,160.007 133.5,158C 136.887,154.947 140.553,152.28 144.5,150C 151.551,149.789 158.551,149.122 165.5,148C 169.931,146.371 173.764,143.871 177,140.5C 177.667,141.167 177.667,141.833 177,142.5C 171.605,147.28 165.439,150.614 158.5,152.5C 162.107,153.489 165.774,153.823 169.5,153.5 Z"/></g>
<g><path style="opacity:1" fill="#7b7b7b" d="M 120.5,150.5 C 119.883,150.389 119.383,150.056 119,149.5C 118.506,151.134 118.34,152.801 118.5,154.5C 117.325,153.026 116.325,151.36 115.5,149.5C 113.21,150.467 111.21,151.8 109.5,153.5C 109.5,152.5 109.5,151.5 109.5,150.5C 110.167,150.167 110.833,149.833 111.5,149.5C 113.484,148.844 115.484,148.178 117.5,147.5C 119.516,147.516 120.516,148.516 120.5,150.5 Z"/></g>
<g><path style="opacity:1" fill="#f6f6f6" d="M 118.5,154.5 C 119.343,156.173 120.676,157.34 122.5,158C 120.26,160.286 117.593,161.786 114.5,162.5C 113.178,162.67 112.011,162.337 111,161.5C 108.884,159.004 108.384,156.337 109.5,153.5C 111.21,151.8 113.21,150.467 115.5,149.5C 116.325,151.36 117.325,153.026 118.5,154.5 Z"/></g>
<g><path style="opacity:1" fill="#e0e0e0" d="M 102.5,157.5 C 101.778,157.918 101.278,158.584 101,159.5C 100.064,156.208 100.564,153.208 102.5,150.5C 103.057,152.718 103.057,155.051 102.5,157.5 Z"/></g>
<g><path style="opacity:1" fill="#ededed" d="M 120.5,150.5 C 120.66,152.153 121.326,153.486 122.5,154.5C 122.631,155.239 122.464,155.906 122,156.5C 121.184,155.177 120.017,154.511 118.5,154.5C 118.34,152.801 118.506,151.134 119,149.5C 119.383,150.056 119.883,150.389 120.5,150.5 Z"/></g>
<g><path style="opacity:1" fill="#b109c5" d="M 90.5,144.5 C 91.3007,146.042 91.634,147.708 91.5,149.5C 69.9161,153.542 48.2494,157.376 26.5,161C 25.244,161.417 24.5774,162.25 24.5,163.5C 22.8372,161.562 22.1706,159.228 22.5,156.5C 22.5,155.5 22.5,154.5 22.5,153.5C 43.8202,149.835 65.1536,146.169 86.5,142.5C 88.1143,142.803 89.4477,143.47 90.5,144.5 Z"/></g>
<g><path style="opacity:1" fill="#787878" d="M 171.5,154.5 C 171.158,153.662 170.492,153.328 169.5,153.5C 172.842,152.22 176.175,151.053 179.5,150C 177.26,152.286 174.593,153.786 171.5,154.5 Z"/></g>
<g><path style="opacity:1" fill="#525252" d="M 120.5,150.5 C 122.104,151.287 122.771,152.62 122.5,154.5C 121.326,153.486 120.66,152.153 120.5,150.5 Z"/></g>
<g><path style="opacity:1" fill="#d001cf" d="M 91.5,149.5 C 92.7362,151.649 93.7362,153.982 94.5,156.5C 71.452,159.841 48.452,163.508 25.5,167.5C 24.7659,166.292 24.4326,164.959 24.5,163.5C 24.5774,162.25 25.244,161.417 26.5,161C 48.2494,157.376 69.9161,153.542 91.5,149.5 Z"/></g>
<g><path style="opacity:1" fill="#f1f1f1" d="M 169.5,173.5 C 170.265,170.904 170.599,168.237 170.5,165.5C 166.818,165.335 163.152,165.501 159.5,166C 157.162,168.542 156.828,171.375 158.5,174.5C 156.5,174.5 154.5,174.5 152.5,174.5C 151.167,174.5 149.833,174.5 148.5,174.5C 150.541,165.504 146.874,160.171 137.5,158.5C 138.692,156.317 140.525,154.984 143,154.5C 146.454,155.122 149.287,156.789 151.5,159.5C 157.656,160.01 163.656,161.177 169.5,163C 173.467,166.624 173.467,170.124 169.5,173.5 Z"/></g>
<g><path style="opacity:1" fill="#626262" d="M 194.5,161.5 C 194.5,160.833 194.167,160.5 193.5,160.5C 196.738,159.047 200.072,157.88 203.5,157C 200.757,159.038 197.757,160.538 194.5,161.5 Z"/></g>
<g><path style="opacity:1" fill="#ededed" d="M 146.5,174.5 C 145.833,174.5 145.167,174.5 144.5,174.5C 142.75,171.645 141.917,168.311 142,164.5C 138.667,163.167 135.333,163.167 132,164.5C 129.843,167.865 130.009,171.032 132.5,174C 132.272,174.399 131.938,174.565 131.5,174.5C 130.022,174.762 128.689,174.429 127.5,173.5C 126.63,161.863 131.63,158.029 142.5,162C 148.348,164.837 149.681,169.004 146.5,174.5 Z"/></g>
<g><path style="opacity:1" fill="#e900d7" d="M 94.5,156.5 C 95.5,157.833 96.5,159.167 97.5,160.5C 97.5569,161.609 97.8902,162.609 98.5,163.5C 75.2737,167.927 51.9404,171.927 28.5,175.5C 26.9028,173.152 25.9028,170.486 25.5,167.5C 48.452,163.508 71.452,159.841 94.5,156.5 Z"/></g>
<g><path style="opacity:1" fill="#707070" d="M 118.5,154.5 C 120.017,154.511 121.184,155.177 122,156.5C 122.464,155.906 122.631,155.239 122.5,154.5C 124.239,158.081 123.239,160.748 119.5,162.5C 117.833,163.833 116.167,163.833 114.5,162.5C 117.593,161.786 120.26,160.286 122.5,158C 120.676,157.34 119.343,156.173 118.5,154.5 Z"/></g>
<g><path style="opacity:1" fill="#e7e7e7" d="M 124.5,162.5 C 125.5,162.5 126.5,162.5 127.5,162.5C 127.664,165.187 127.497,167.854 127,170.5C 126.588,172.997 125.422,174.997 123.5,176.5C 122.749,175.624 122.249,174.624 122,173.5C 120.434,174.061 119.101,173.394 118,171.5C 117.253,168.049 117.92,167.716 120,170.5C 120.163,168.613 119.329,167.113 117.5,166C 119.858,164.724 122.192,163.558 124.5,162.5 Z"/></g>
<g><path style="opacity:1" fill="#ebad1e" d="M 110.5,164.5 C 111.675,164.281 112.675,164.614 113.5,165.5C 112.397,168.719 110.563,171.385 108,173.5C 107.5,173.167 107,172.833 106.5,172.5C 108.297,170.045 109.63,167.378 110.5,164.5 Z"/></g>
<g><path style="opacity:1" fill="#fa02de" d="M 98.5,163.5 C 100.1,164.952 101.1,166.785 101.5,169C 100.102,173.422 99.1024,177.922 98.5,182.5C 78.3446,186.915 58.0112,190.582 37.5,193.5C 33.4651,188.097 30.4651,182.097 28.5,175.5C 51.9404,171.927 75.2737,167.927 98.5,163.5 Z"/></g>
<g><path style="opacity:1" fill="#e4a718" d="M 107.5,160.5 C 108.497,160.47 109.164,160.97 109.5,162C 108.975,165.557 107.308,168.39 104.5,170.5C 104.167,170.167 103.833,169.833 103.5,169.5C 105.143,166.555 106.476,163.555 107.5,160.5 Z"/></g>
<g><path style="opacity:0.984" fill="#060306" d="M 124.5,179.5 C 125.167,179.5 125.5,179.167 125.5,178.5C 125.866,177.305 126.699,176.639 128,176.5C 130.12,177.459 132.287,177.626 134.5,177C 132.494,176.917 131.494,176.417 131.5,175.5C 136.032,175.818 140.366,175.485 144.5,174.5C 145.167,174.5 145.833,174.5 146.5,174.5C 147.167,174.5 147.833,174.5 148.5,174.5C 149.833,174.5 151.167,174.5 152.5,174.5C 158.054,175.502 163.554,176.169 169,176.5C 170.512,175.743 171.846,174.743 173,173.5C 174.699,174.406 176.533,174.739 178.5,174.5C 178.586,175.496 178.252,176.329 177.5,177C 163.657,184.402 148.99,187.236 133.5,185.5C 131.883,184.962 130.216,184.629 128.5,184.5C 121.903,182.535 115.903,179.535 110.5,175.5C 111.657,173.862 112.824,172.196 114,170.5C 116.459,174.798 119.959,177.798 124.5,179.5 Z"/></g>
<g><path style="opacity:1" fill="#8e8e8e" d="M 144.5,174.5 C 140.366,175.485 136.032,175.818 131.5,175.5C 131.5,175.167 131.5,174.833 131.5,174.5C 131.938,174.565 132.272,174.399 132.5,174C 130.009,171.032 129.843,167.865 132,164.5C 135.333,163.167 138.667,163.167 142,164.5C 141.917,168.311 142.75,171.645 144.5,174.5 Z"/></g>
<g><path style="opacity:1" fill="#fafafa" d="M 133.5,166.5 C 135.948,165.527 138.615,165.194 141.5,165.5C 141.5,168.167 141.5,170.833 141.5,173.5C 139.143,173.663 136.81,173.497 134.5,173C 134.442,170.769 134.108,168.602 133.5,166.5 Z"/></g>
<g><path style="opacity:1" fill="#d32cd4" d="M 246.5,173.5 C 180.28,185.259 113.946,196.259 47.5,206.5C 46.1667,205.833 45.1667,204.833 44.5,203.5C 74.6714,199.583 104.671,194.583 134.5,188.5C 133.873,187.583 133.539,186.583 133.5,185.5C 148.99,187.236 163.657,184.402 177.5,177C 178.252,176.329 178.586,175.496 178.5,174.5C 190.95,177.157 202.616,175.324 213.5,169C 224.56,168.27 235.56,168.77 246.5,170.5C 246.5,171.5 246.5,172.5 246.5,173.5 Z"/></g>
<g><path style="opacity:1" fill="#e6e6e6" d="M 101.5,172.5 C 103.812,173.32 106.146,174.153 108.5,175C 106.317,177.35 103.984,179.517 101.5,181.5C 100.491,178.527 100.491,175.527 101.5,172.5 Z"/></g>
<g><path style="opacity:1" fill="#737373" d="M 169.5,173.5 C 166.038,174.482 162.371,174.815 158.5,174.5C 156.828,171.375 157.162,168.542 159.5,166C 163.152,165.501 166.818,165.335 170.5,165.5C 170.599,168.237 170.265,170.904 169.5,173.5 Z"/></g>
<g><path style="opacity:1" fill="#f6f6f6" d="M 160.5,166.5 C 163.167,166.5 165.833,166.5 168.5,166.5C 168.5,168.833 168.5,171.167 168.5,173.5C 165.813,173.664 163.146,173.497 160.5,173C 161.605,170.88 161.605,168.713 160.5,166.5 Z"/></g>
<g><path style="opacity:1" fill="#c639d3" d="M 246.5,173.5 C 246.5,174.833 246.5,176.167 246.5,177.5C 181.447,188.176 116.447,199.176 51.5,210.5C 49.8333,209.5 48.5,208.167 47.5,206.5C 113.946,196.259 180.28,185.259 246.5,173.5 Z"/></g>
<g><path style="opacity:1" fill="#b945cf" d="M 246.5,177.5 C 246.5,178.5 246.5,179.5 246.5,180.5C 182.607,191.927 118.607,202.927 54.5,213.5C 53.1667,212.833 52.1667,211.833 51.5,210.5C 116.447,199.176 181.447,188.176 246.5,177.5 Z"/></g>
<g><path style="opacity:1" fill="#ad4fcc" d="M 246.5,180.5 C 246.5,181.5 246.5,182.5 246.5,183.5C 183.236,194.6 119.903,205.266 56.5,215.5C 55.5,215.167 54.8333,214.5 54.5,213.5C 118.607,202.927 182.607,191.927 246.5,180.5 Z"/></g>
<g><path style="opacity:1" fill="#ed15dc" d="M 110.5,175.5 C 115.903,179.535 121.903,182.535 128.5,184.5C 100.038,190.246 71.3717,195.579 42.5,200.5C 40.4776,198.469 38.8109,196.135 37.5,193.5C 58.0112,190.582 78.3446,186.915 98.5,182.5C 98.4606,183.583 98.1272,184.583 97.5,185.5C 98.0016,186.521 98.6683,186.688 99.5,186C 103.036,182.296 106.702,178.796 110.5,175.5 Z"/></g>
<g><path style="opacity:1" fill="#e021d9" d="M 128.5,184.5 C 130.216,184.629 131.883,184.962 133.5,185.5C 133.539,186.583 133.873,187.583 134.5,188.5C 104.671,194.583 74.6714,199.583 44.5,203.5C 43.8333,202.5 43.1667,201.5 42.5,200.5C 71.3717,195.579 100.038,190.246 128.5,184.5 Z"/></g>
<g><path style="opacity:1" fill="#9464c5" d="M 246.5,186.5 C 246.5,187.5 246.5,188.5 246.5,189.5C 185.236,200.266 123.903,210.6 62.5,220.5C 61.5,220.167 60.8333,219.5 60.5,218.5C 122.454,207.619 184.454,196.952 246.5,186.5 Z"/></g>
<g><path style="opacity:1" fill="#767cbc" d="M 246.5,194.5 C 246.5,195.167 246.5,195.833 246.5,196.5C 188.231,206.823 129.897,216.823 71.5,226.5C 69.9731,226.573 68.9731,225.906 68.5,224.5C 127.686,213.636 187.019,203.636 246.5,194.5 Z"/></g>
<g><path style="opacity:1" fill="#866fc1" d="M 246.5,189.5 C 246.5,191.167 246.5,192.833 246.5,194.5C 187.019,203.636 127.686,213.636 68.5,224.5C 66.2048,223.525 64.2048,222.192 62.5,220.5C 123.903,210.6 185.236,200.266 246.5,189.5 Z"/></g>
<g><path style="opacity:1" fill="#a357c9" d="M 246.5,183.5 C 246.5,184.5 246.5,185.5 246.5,186.5C 184.454,196.952 122.454,207.619 60.5,218.5C 58.7697,217.974 57.4363,216.974 56.5,215.5C 119.903,205.266 183.236,194.6 246.5,183.5 Z"/></g>
<g><path style="opacity:1" fill="#5696b3" d="M 244.5,202.5 C 243.833,203.833 242.833,204.833 241.5,205.5C 188.488,213.778 135.822,223.111 83.5,233.5C 82.1667,232.833 80.8333,232.167 79.5,231.5C 134.146,220.708 189.146,211.041 244.5,202.5 Z"/></g>
<g><path style="opacity:1" fill="#5f8fb6" d="M 246.5,200.5 C 246.167,201.5 245.5,202.167 244.5,202.5C 189.146,211.041 134.146,220.708 79.5,231.5C 78.2905,231.068 77.2905,230.401 76.5,229.5C 132.935,219.205 189.602,209.538 246.5,200.5 Z"/></g>
<g><path style="opacity:1" fill="#6b86b9" d="M 246.5,196.5 C 246.5,197.833 246.5,199.167 246.5,200.5C 189.602,209.538 132.935,219.205 76.5,229.5C 74.5659,228.89 72.8993,227.89 71.5,226.5C 129.897,216.823 188.231,206.823 246.5,196.5 Z"/></g>
<g><path style="opacity:1" fill="#49a1af" d="M 241.5,205.5 C 240.167,207.5 238.5,209.167 236.5,210.5C 236.083,209.876 235.416,209.543 234.5,209.5C 185.619,217.756 136.952,226.423 88.5,235.5C 86.7162,235.107 85.0495,234.441 83.5,233.5C 135.822,223.111 188.488,213.778 241.5,205.5 Z"/></g>
<g><path style="opacity:1" fill="#16c79e" d="M 220.5,223.5 C 214.484,228.178 207.817,231.845 200.5,234.5C 198.034,233.366 195.367,233.199 192.5,234C 171.167,237.667 149.833,241.333 128.5,245C 137.827,245.5 147.161,245.666 156.5,245.5C 140.45,247.391 124.45,246.391 108.5,242.5C 108.97,241.307 109.97,240.64 111.5,240.5C 145.167,234.667 178.833,228.833 212.5,223C 215.367,222.199 218.034,222.366 220.5,223.5 Z"/></g>
<g><path style="opacity:1" fill="#26bca5" d="M 226.5,219.5 C 224.772,221.226 222.772,222.559 220.5,223.5C 218.034,222.366 215.367,222.199 212.5,223C 178.833,228.833 145.167,234.667 111.5,240.5C 109.97,240.64 108.97,241.307 108.5,242.5C 107.391,242.443 106.391,242.11 105.5,241.5C 105.611,240.883 105.944,240.383 106.5,240C 105.167,239.667 103.833,239.333 102.5,239C 141.167,232.333 179.833,225.667 218.5,219C 221.367,218.199 224.034,218.366 226.5,219.5 Z"/></g>
<g><path style="opacity:1" fill="#3fa8ac" d="M 236.5,210.5 C 235.5,212.167 234.167,213.5 232.5,214.5C 230.372,213.371 228.039,213.204 225.5,214C 181.307,221.531 137.307,229.364 93.5,237.5C 91.597,237.204 89.9303,236.537 88.5,235.5C 136.952,226.423 185.619,217.756 234.5,209.5C 235.416,209.543 236.083,209.876 236.5,210.5 Z"/></g>
<g><path style="opacity:1" fill="#30b4a7" d="M 232.5,214.5 C 230.525,216.137 228.525,217.804 226.5,219.5C 224.034,218.366 221.367,218.199 218.5,219C 179.833,225.667 141.167,232.333 102.5,239C 103.833,239.333 105.167,239.667 106.5,240C 105.944,240.383 105.611,240.883 105.5,241.5C 101.216,240.739 97.2157,239.405 93.5,237.5C 137.307,229.364 181.307,221.531 225.5,214C 228.039,213.204 230.372,213.371 232.5,214.5 Z"/></g>
<g><path style="opacity:1" fill="#05d399" d="M 200.5,234.5 C 186.656,240.995 171.989,244.661 156.5,245.5C 147.161,245.666 137.827,245.5 128.5,245C 149.833,241.333 171.167,237.667 192.5,234C 195.367,233.199 198.034,233.366 200.5,234.5 Z"/></g>
</svg>
