<svg width="77" height="77" viewBox="0 0 77 77" fill="none" xmlns="http://www.w3.org/2000/svg">
<path d="M55.4405 69.965C42.5493 69.9483 30.191 64.8199 21.0755 55.7045C11.9601 46.589 6.83171 34.2307 6.815 21.3395C6.815 17.4874 8.34526 13.793 11.0691 11.0691C13.793 8.34526 17.4874 6.815 21.3395 6.815C22.1552 6.80879 22.9696 6.88282 23.7708 7.03602C24.5453 7.15064 25.3068 7.34101 26.0442 7.60437C26.5628 7.78634 27.0249 8.10052 27.3849 8.51586C27.7448 8.93119 27.9901 9.43329 28.0965 9.9725L32.4223 28.9175C32.5389 29.4317 32.5249 29.967 32.3815 30.4744C32.2381 30.9818 31.9699 31.4453 31.6014 31.8224C31.1909 32.2645 31.1593 32.296 27.2756 34.3168C30.3857 41.1397 35.8425 46.6189 42.6526 49.757C44.705 45.8417 44.7366 45.8101 45.1786 45.3997C45.5558 45.0311 46.0192 44.7629 46.5266 44.6195C47.034 44.4761 47.5693 44.4621 48.0835 44.5787L67.0285 48.9045C67.5505 49.0256 68.033 49.2775 68.4307 49.6366C68.8284 49.9956 69.1283 50.45 69.3019 50.9568C69.5684 51.7063 69.7691 52.4775 69.9018 53.2618C70.0289 54.0554 70.0923 54.8579 70.0913 55.6615C70.0331 59.4972 68.4598 63.1541 65.7149 65.8339C62.97 68.5137 59.2765 69.9988 55.4405 69.965ZM21.3395 13.13C19.1648 13.1383 17.0815 14.0059 15.5437 15.5437C14.0059 17.0815 13.1383 19.1648 13.13 21.3395C13.1384 32.5584 17.5987 43.3154 25.5317 51.2483C33.4646 59.1813 44.2216 63.6416 55.4405 63.65C57.6152 63.6417 59.6985 62.7741 61.2363 61.2363C62.7741 59.6985 63.6417 57.6152 63.65 55.4405C63.65 55.0932 63.65 54.7458 63.65 54.3985L48.9992 51.02L48.0835 52.7566C46.6626 55.5036 45.6207 57.4929 42.9684 56.4193C37.736 54.5465 32.9866 51.5316 29.0651 47.5937C25.1436 43.6559 22.1485 38.8939 20.2975 33.6538C19.1608 31.1909 21.3079 30.0542 24.0234 28.6333L25.76 27.7808L22.3815 13.13H21.3395Z" fill="white"/>
</svg>
